<svg xmlns="http://www.w3.org/2000/svg" width="48" height="48" viewBox="0 0 48 48"><defs><style>.a{fill:#e5e4e0;}.b{fill:#787878;}</style></defs><g transform="translate(-1543 -821)"><circle class="a" cx="24" cy="24" r="24" transform="translate(1543 821)"/><path class="b" d="M25.216,17.921h-3.7a3.771,3.771,0,0,0,3.77-3.77V13.064a4.421,4.421,0,0,0-4.422-4.422h-1.7c.928-1.87-.9-3.335-1.928-3.842-.1,1.957-.217,3.842-3.9,3.842H10.688a4.437,4.437,0,0,0-4.437,4.437v1.073A3.782,3.782,0,0,0,7.3,16.771a1.361,1.361,0,0,0,.977.425h2.972a.368.368,0,0,1,.362.362.359.359,0,0,1-.362.362H6.832A4.886,4.886,0,0,0,1.96,22.793v1.7a4.873,4.873,0,0,0,4.872,4.872H25.216a4.871,4.871,0,0,0,4.872-4.872v-1.7A4.873,4.873,0,0,0,25.216,17.921Zm-11.483,0H12.689a.368.368,0,0,1-.362-.362.379.379,0,0,1,.362-.362h1.044a.368.368,0,0,1,.362.362A.359.359,0,0,1,13.733,17.921Z" transform="translate(1551.04 825.39)"/></g></svg>