<svg xmlns="http://www.w3.org/2000/svg" width="48" height="48" viewBox="0 0 48 48"><defs><style>.a{fill:#e5e4e0;}.b{fill:#787878;}</style></defs><g transform="translate(-1543 -712)"><circle class="a" cx="24" cy="24" r="24" transform="translate(1543 712)"/><g transform="translate(1551.741 720.363)"><path class="b" d="M50.341,4.8a2.881,2.881,0,0,1,.513-.186c-.217.093-.419.2-.637.311-.249.14-.5.28-.746.435A3.46,3.46,0,0,1,50.341,4.8Z" transform="translate(-41.71 -1.273)"/><path class="b" d="M58.339,20.469a4.184,4.184,0,0,1-.451.249,3.809,3.809,0,0,1-1.227.342A10.3,10.3,0,0,0,58.339,20.469Z" transform="translate(-37.731 7.505)"/><path class="b" d="M50.521,24.232a14.005,14.005,0,0,1-2.548-3.418,13.832,13.832,0,0,1-1.6-5.857,12.334,12.334,0,0,1,2.1-7.488c-.575,3.169.093,7.364,2.035,11.511a20.322,20.322,0,0,0,7.348,8.855A12.786,12.786,0,0,1,50.521,24.232Z" transform="translate(-43.43 0.31)"/><path class="b" d="M63.485,14.126c-3.029-6.509-8.2-10.579-11.853-9.461l-.016.016c-.217.093-.419.2-.637.311-.249.14-.5.28-.746.435l-.016.016c-2.812,2.346-2.874,8.637.031,14.867.171.357.342.715.528,1.056a23.466,23.466,0,0,0,2.408,3.744,18.512,18.512,0,0,0,1.352,1.507c.233.233.466.451.7.668a8.883,8.883,0,0,0,5.608,2.656c.186,0,.373-.016.559-.031a10.3,10.3,0,0,0,1.678-.59C66.312,27.253,66.53,20.651,63.485,14.126Zm-8.016-.854A.381.381,0,0,1,56,13.117c2.563,1.367,3.713,5.033,3.5,7.8a.389.389,0,0,1-.388.357h-.031a.386.386,0,0,1-.357-.419c.2-2.517-.808-5.841-3.091-7.053A.384.384,0,0,1,55.469,13.272ZM59.493,26.1a.391.391,0,0,1-.311.14.419.419,0,0,1-.233-.078c-4.443-3.48-6.975-8.979-7.317-15.923a.382.382,0,0,1,.357-.4.409.409,0,0,1,.419.373c.326,6.7,2.75,12.008,7.022,15.333A.428.428,0,0,1,59.493,26.1Z" transform="translate(-42.475 -1.344)"/><path class="b" d="M51.023,22.112c-2.02.715-4.552-.559-5.81-3.014-1.367-2.641-.777-5.655,1.3-6.727.047-.016.078-.047.124-.062a14.384,14.384,0,0,0,1.693,6.2A14.645,14.645,0,0,0,51.023,22.112Z" transform="translate(-44.475 2.989)"/><g transform="translate(19.863 3.882)"><path class="b" d="M64.06,21.257h-.009a.389.389,0,0,1-.379-.4A19.1,19.1,0,0,0,57.388,5.636a.389.389,0,0,1,.525-.575,19.86,19.86,0,0,1,6.535,15.818A.389.389,0,0,1,64.06,21.257Z" transform="translate(-57.262 -4.96)"/></g><g transform="translate(20.2)"><path class="b" d="M67.651,24.327a.39.39,0,0,1-.388-.388c0-7.315-1.14-15.5-9.6-20.759a.388.388,0,0,1,.409-.659c8.785,5.456,9.969,13.888,9.969,21.418A.389.389,0,0,1,67.651,24.327Z" transform="translate(-57.479 -2.462)"/></g><g transform="translate(26.78 0.845)"><path class="b" d="M68.514,19.893h0a.388.388,0,0,1-.384-.393c.079-7.219-1.8-11.948-6.276-15.813a.388.388,0,1,1,.506-.589c4.608,3.975,6.627,9.037,6.546,16.411A.389.389,0,0,1,68.514,19.893Z" transform="translate(-61.714 -3.005)"/></g></g></g></svg>