<svg xmlns="http://www.w3.org/2000/svg" width="48" height="48" viewBox="0 0 48 48"><defs><style>.a{fill:#e5e4e0;}.b{fill:#787878;}</style></defs><g transform="translate(-1543 -615)"><circle class="a" cx="24" cy="24" r="24" transform="translate(1543 615)"/><g transform="translate(1554.86 622.133)"><g transform="translate(0.114 3.463)"><path class="b" d="M24.321,14.3a2.25,2.25,0,0,0-.241.528,10.967,10.967,0,0,1-1.564,4.194,5.857,5.857,0,0,1-2.232,2.117,4.667,4.667,0,0,1-1.028.5,4.763,4.763,0,0,1-1.288.06,3.24,3.24,0,0,1-2.931-2.686,3.852,3.852,0,0,1,1.62-3.641c1.725-1.188,3.447-2.38,5.186-3.547a3.505,3.505,0,0,1,1.009-.409,1.086,1.086,0,0,1,1.228.668c.034.088.159.138.241.207A2.129,2.129,0,0,1,24.321,14.3Z" transform="translate(1.425 -0.192)"/><path class="b" d="M20.75,9.363a11.585,11.585,0,0,1-.515,3.124,6.886,6.886,0,0,1-.982,2.2,3.677,3.677,0,0,1-3.128,1.439c-.589.014-1.182-.066-1.772-.094a2.217,2.217,0,0,1-1.895-2.263q.226-1.933.493-3.86c.1-.731.226-1.462.387-2.182a10.019,10.019,0,0,1,.47-1.491A9.341,9.341,0,0,1,14.5,4.8a1.946,1.946,0,0,1,2.418-.979,1.555,1.555,0,0,1,.648.36A11.742,11.742,0,0,1,20.245,7.3,4.157,4.157,0,0,1,20.75,9.363Z" transform="translate(0.472 -3.02)"/><path class="b" d="M10.637,16.179a3.819,3.819,0,0,1-2.072-.342,4.569,4.569,0,0,1-2.76-4.257,12.6,12.6,0,0,1,.579-3.968A6.935,6.935,0,0,1,9.373,3.754a3.807,3.807,0,0,1,1.309-.513,1.357,1.357,0,0,1,1.594,1.231,21.3,21.3,0,0,1,.355,2.152c.114,1.106.162,2.218.255,3.327q.158,1.871.352,3.739c.021.211.188.429.152.619a2.123,2.123,0,0,1-.932,1.588A3.231,3.231,0,0,1,10.637,16.179Z" transform="translate(-1.983 -3.208)"/><path class="b" d="M19.322,25.225c-.724-.127-1.357-.212-1.974-.355-.482-.111-.946-.293-1.418-.442-1.008-.32-2.009-.659-3.024-.952a1.874,1.874,0,0,0-1.543.456c-.361.233-.737.446-1.11.659-.312.177-.623.359-.949.5a1.727,1.727,0,0,1-.564.108A3.081,3.081,0,0,1,6.8,24.926a.782.782,0,0,1-.438-.679,3.459,3.459,0,0,1,1.116-2.815c1.093-1.017,2.154-2.072,3.183-3.152a4.861,4.861,0,0,1,2.975-1.521,2.555,2.555,0,0,1,2.438,1.067,35.424,35.424,0,0,0,2.986,3.515,21.391,21.391,0,0,1,1.609,1.852,1.108,1.108,0,0,1-.394,1.644A4.928,4.928,0,0,1,19.322,25.225Z" transform="translate(-1.776 1.785)"/><path class="b" d="M3.019,14.875c0-.5-.019-.991,0-1.486.06-1.313.882-1.5,1.868-1.145a14.486,14.486,0,0,1,1.633.708c.542.275,1.051.615,1.585.905.626.34,1.262.656,1.894.983a3.434,3.434,0,0,1,1.44,1.087A1.142,1.142,0,0,1,11.3,17.5c-.409.4-.837.78-1.223,1.2q-.84.912-1.631,1.872a3.322,3.322,0,0,1-2.269,1.158,1.641,1.641,0,0,1-1.042-.4,4.754,4.754,0,0,1-1.616-2.5A12.232,12.232,0,0,1,3.019,14.875Z" transform="translate(-3.011 0.069)"/></g><g transform="translate(9.105)"><path class="b" d="M10.127,3.146a.5.5,0,0,1-.486-.359A2.16,2.16,0,0,1,10.119.864a.514.514,0,0,1,.789.659,1.138,1.138,0,0,0-.282.973.519.519,0,0,1-.355.631A.512.512,0,0,1,10.127,3.146Z" transform="translate(-9.578 -0.679)"/></g><g transform="translate(15.491 0.483)"><path class="b" d="M15.066,3.6a.514.514,0,0,1-.513-.513,3.34,3.34,0,0,1,.036-.457c.037-.271.051-.372-.248-.779a.514.514,0,1,1,.83-.607,1.781,1.781,0,0,1,.435,1.524,2.292,2.292,0,0,0-.026.319A.514.514,0,0,1,15.066,3.6Z" transform="translate(-14.242 -1.032)"/></g><g transform="translate(24.691 11.176)"><path class="b" d="M21.5,11.231a.494.494,0,0,1-.17-.03.511.511,0,0,1-.314-.653,1.812,1.812,0,0,0-.036-1.05.513.513,0,1,1,.986-.286,2.717,2.717,0,0,1,.018,1.676A.513.513,0,0,1,21.5,11.231Z" transform="translate(-20.962 -8.842)"/></g><g transform="translate(0 11.909)"><path class="b" d="M3.8,11.947a.513.513,0,0,1-.385-.174,2.52,2.52,0,0,1-.47-1.93.513.513,0,0,1,1.023.093,1.592,1.592,0,0,0,.218,1.158.514.514,0,0,1-.386.853Z" transform="translate(-2.928 -9.377)"/></g></g></g></svg>